<svg width="43" height="41" viewBox="0 0 43 41" fill="none" xmlns="http://www.w3.org/2000/svg">
<path d="M18.8293 1.65132C19.0752 1.15563 19.4554 0.738281 19.9272 0.446465C20.3989 0.154649 20.9432 0 21.4986 0C22.054 0 22.5983 0.154649 23.07 0.446465C23.5417 0.738281 23.922 1.15563 24.1678 1.65132L29.1988 11.7983L40.4481 13.4247C40.998 13.5037 41.5148 13.7342 41.9399 14.0904C42.365 14.4465 42.6815 14.9139 42.8536 15.4398C43.0257 15.9656 43.0465 16.5289 42.9137 17.0659C42.7808 17.603 42.4996 18.0923 42.1019 18.4785L33.9585 26.3801L35.8802 37.5312C35.9736 38.076 35.9121 38.636 35.7025 39.1478C35.493 39.6596 35.1438 40.1029 34.6945 40.4276C34.2451 40.7523 33.7135 40.9454 33.1597 40.9851C32.6058 41.0248 32.0519 40.9096 31.5604 40.6524L21.4986 35.3912L11.4367 40.6589C10.9447 40.9167 10.39 41.0322 9.83542 40.9923C9.28086 40.9524 8.74862 40.7587 8.29898 40.4331C7.84935 40.1075 7.5003 39.6632 7.29138 39.1503C7.08246 38.6374 7.02202 38.0765 7.11691 37.5312L9.03534 26.3801L0.898529 18.4818C0.500873 18.0958 0.219639 17.6067 0.0866234 17.07C-0.0463917 16.5332 -0.0258819 15.9701 0.145834 15.4443C0.31755 14.9185 0.633622 14.451 1.05831 14.0947C1.48301 13.7384 1.99938 13.5075 2.54905 13.428L13.795 11.8016L18.8293 1.65132Z" fill="url(#paint0_linear_132_622)"/>
<defs>
<linearGradient id="paint0_linear_132_622" x1="42.995" y1="41.9166" x2="-1.05158" y2="0.189657" gradientUnits="userSpaceOnUse">
<stop stop-color="#FFAB94"/>
<stop offset="0.9999" stop-color="#FFDE74"/>
<stop offset="1" stop-color="#FFDE74"/>
</linearGradient>
</defs>
</svg>
